<?xml version="1.0" encoding="utf-8"?>
<!-- Generator: Adobe Illustrator 16.0.0, SVG Export Plug-In . SVG Version: 6.00 Build 0)  -->
<!DOCTYPE svg PUBLIC "-//W3C//DTD SVG 1.1//EN" "http://www.w3.org/Graphics/SVG/1.1/DTD/svg11.dtd">
<svg version="1.1" id="Layer_1" xmlns="http://www.w3.org/2000/svg" xmlns:xlink="http://www.w3.org/1999/xlink" x="0px" y="0px"
	 width="30px" height="30px" viewBox="0 0 30 30" enable-background="new 0 0 30 30" xml:space="preserve">
<path display="none" fill="#FFFFFF" d="M9.942,11.074c0.412,0,0.776,0,1.141,0c0.33,0,0.66,0,1.083,0
	c0.021-2-0.211-4.021,1.687-5.306c1.691-1.144,3.581-0.611,5.478-0.74c0,1.361,0,2.623,0,3.777
	c-0.954,0.236-1.899,0.369-2.742,0.742c-0.243,0.11-0.185,0.906-0.28,1.504c1.084,0,2.014,0,3.021,0c0,1.363,0,2.626,0,3.998
	c-0.933,0-1.864,0-2.917,0c0,3.359,0,6.617,0,9.941c-1.455,0-2.782,0-4.21,0c0-3.292,0-6.521,0-9.86c-0.786,0-1.477,0-2.259,0
	C9.942,13.765,9.942,12.503,9.942,11.074z"/>
<path fill-rule="evenodd" clip-rule="evenodd" fill="#FFFFFF" d="M6.142,20.369c-0.016-3.817,2.829-7.583,6.255-8.282
	c1.918-0.391,4.135,0.773,4.727,2.508c0.212,0.619,0.329,1.304-0.422,1.629c-0.691,0.302-0.998-0.188-1.298-0.77
	c-0.729-1.412-1.786-1.817-3.25-1.35c-2.524,0.806-4.626,4.553-4.017,7.161c0.415,1.777,1.623,2.451,3.365,1.88
	c1.16-0.383,1.954-1.214,2.649-2.163c0.228-0.313,0.417-0.651,0.638-0.968c0.352-0.507,0.828-0.691,1.375-0.363
	c0.511,0.307,0.488,0.771,0.236,1.263c-1.166,2.28-2.907,3.878-5.473,4.334C8.269,25.721,6.154,23.51,6.142,20.369z"/>
<path fill-rule="evenodd" clip-rule="evenodd" fill="#FFFFFF" d="M16.414,18.903c-2.069-0.017-3.683-1.146-4.199-2.707
	c-0.17-0.517-0.187-0.978,0.336-1.253c0.56-0.294,0.997-0.089,1.357,0.425c1.283,1.83,2.804,2.092,4.563,0.72
	c1.818-1.418,2.821-3.319,2.809-5.634c-0.015-2.577-1.933-3.601-4.171-2.318c-0.995,0.569-1.72,1.392-2.32,2.346
	c-0.374,0.593-0.847,1.014-1.537,0.517c-0.617-0.446-0.378-1.008-0.045-1.537c0.704-1.119,1.567-2.083,2.692-2.796
	c3.58-2.272,7.148-0.416,7.352,3.825c0.159,3.313-2.52,7.167-5.695,8.17C17.102,18.803,16.619,18.86,16.414,18.903z"/>
</svg>
