<?xml version="1.0" encoding="utf-8"?>
<!-- Generator: Adobe Illustrator 16.0.0, SVG Export Plug-In . SVG Version: 6.00 Build 0)  -->
<!DOCTYPE svg PUBLIC "-//W3C//DTD SVG 1.1//EN" "http://www.w3.org/Graphics/SVG/1.1/DTD/svg11.dtd">
<svg version="1.1" id="Layer_1" xmlns="http://www.w3.org/2000/svg" xmlns:xlink="http://www.w3.org/1999/xlink" x="0px" y="0px"
	 width="30px" height="30px" viewBox="0 0 30 30" enable-background="new 0 0 30 30" xml:space="preserve">
<path fill-rule="evenodd" clip-rule="evenodd" fill="#FFFFFF" d="M9.942,11.074c0.412,0,0.776,0,1.141,0c0.33,0,0.66,0,1.083,0
	c0.021-2-0.211-4.021,1.687-5.306c1.691-1.144,3.58-0.611,5.478-0.74c0,1.361,0,2.623,0,3.777c-0.954,0.236-1.9,0.369-2.742,0.742
	c-0.243,0.11-0.185,0.906-0.281,1.504c1.084,0,2.015,0,3.021,0c0,1.363,0,2.626,0,3.998c-0.933,0-1.864,0-2.917,0
	c0,3.359,0,6.617,0,9.941c-1.455,0-2.782,0-4.21,0c0-3.292,0-6.521,0-9.86c-0.786,0-1.477,0-2.259,0
	C9.942,13.765,9.942,12.503,9.942,11.074z"/>
</svg>
