<?xml version="1.0" encoding="utf-8"?>
<!-- Generator: Adobe Illustrator 16.0.0, SVG Export Plug-In . SVG Version: 6.00 Build 0)  -->
<!DOCTYPE svg PUBLIC "-//W3C//DTD SVG 1.1//EN" "http://www.w3.org/Graphics/SVG/1.1/DTD/svg11.dtd">
<svg version="1.1" id="Layer_1" xmlns="http://www.w3.org/2000/svg" xmlns:xlink="http://www.w3.org/1999/xlink" x="0px" y="0px"
	 width="30px" height="30px" viewBox="0 0 30 30" enable-background="new 0 0 30 30" xml:space="preserve">
<rect x="-0.762" display="none" fill-rule="evenodd" clip-rule="evenodd" fill="#6EAA6F" width="100" height="100"/>
<path display="none" fill-rule="evenodd" clip-rule="evenodd" fill="#FFFFFF" d="M9.942,11.074c0.412,0,0.776,0,1.141,0
	c0.33,0,0.66,0,1.083,0c0.021-2-0.211-4.021,1.687-5.306c1.691-1.144,3.58-0.611,5.478-0.74c0,1.361,0,2.623,0,3.777
	c-0.954,0.236-1.9,0.369-2.742,0.742c-0.243,0.11-0.185,0.906-0.281,1.504c1.084,0,2.015,0,3.021,0c0,1.363,0,2.626,0,3.998
	c-0.933,0-1.864,0-2.917,0c0,3.359,0,6.617,0,9.941c-1.455,0-2.782,0-4.21,0c0-3.292,0-6.521,0-9.86c-0.786,0-1.477,0-2.259,0
	C9.942,13.765,9.942,12.503,9.942,11.074z"/>
<path fill-rule="evenodd" clip-rule="evenodd" fill="#FFFFFF" d="M6.749,13.005c0.537,0.116,0.953,0.206,1.583,0.341
	C6.936,11.764,6.418,10.217,7.36,8.33c2.137,2.317,4.59,3.842,7.685,3.958c0.094-0.85,0.04-1.678,0.291-2.399
	c0.869-2.497,3.969-3.356,5.915-1.605c0.699,0.628,1.16,0.52,1.771,0.066c0.214-0.159,0.441-0.301,0.767-0.374
	c-0.368,0.664-0.735,1.328-1.165,2.101c0.666-0.184,1.24-0.341,2.058-0.567c-0.563,0.608-1.025,1.018-1.369,1.51
	c-0.266,0.379-0.521,0.856-0.54,1.301c-0.23,5.199-3.669,9.252-8.792,10.155c-2.545,0.447-4.97-0.028-7.384-1.546
	c1.849-0.063,3.442-0.368,4.869-1.495c-1.571-0.337-2.693-1.126-3.269-2.657c0.438-0.032,0.826-0.062,1.215-0.091
	C7.891,15.898,6.87,14.818,6.749,13.005z"/>
<path display="none" fill-rule="evenodd" clip-rule="evenodd" fill="#FFFFFF" d="M5.59,24.005c0.565-1.64,1.02-3.049,1.542-4.431
	c0.223-0.59,0.261-1.081,0.01-1.692c-1.917-4.673,0.486-9.886,5.24-11.451c4.713-1.551,9.742,1.171,10.984,6.024
	c0.873,3.405-0.08,6.362-2.713,8.641c-2.64,2.285-5.703,2.721-8.944,1.401c-0.677-0.276-1.231-0.302-1.89-0.043
	C8.508,22.971,7.173,23.429,5.59,24.005z M8.25,21.446c0.521-0.185,1.036-0.325,1.515-0.545c0.765-0.352,1.418-0.387,2.223,0.071
	c1.466,0.836,3.11,0.936,4.744,0.534c3.813-0.939,6.145-4.726,5.256-8.477c-0.914-3.858-4.64-6.214-8.495-5.372
	c-3.752,0.821-6.315,4.605-5.307,8.384c0.492,1.841,0.901,3.481-0.048,5.22C8.131,21.275,8.168,21.313,8.25,21.446z"/>
<path display="none" fill-rule="evenodd" clip-rule="evenodd" fill="#FFFFFF" d="M16.9,18.912c-3.755-0.038-7.01-4.315-5.75-7.656
	c0.15-0.398,0.647-0.952,0.958-0.937c0.475,0.024,1.1,0.381,1.337,0.786c0.206,0.35,0.146,1.146-0.125,1.428
	c-0.733,0.759-0.474,1.419,0.027,2.022c0.59,0.708,1.261,1.372,1.989,1.938c0.526,0.407,1.119,0.564,1.784-0.047
	c0.313-0.289,1.12-0.366,1.506-0.164c0.402,0.212,0.785,0.885,0.766,1.34c-0.015,0.349-0.619,0.763-1.047,0.978
	C17.92,18.814,17.387,18.817,16.9,18.912z"/>
</svg>
